<?xml version="1.0" encoding="UTF-8"?>
<svg xmlns="http://www.w3.org/2000/svg" viewBox="0 0 590 90" width="590" height="90">
<title>Rung 1 - Trigger Latch</title>
<style>text{font-family:'Segoe UI',Arial,sans-serif}</style>
<line x1="25" y1="10" x2="25" y2="80" stroke="#333" stroke-width="3"/>
<line x1="560" y1="10" x2="560" y2="80" stroke="#333" stroke-width="3"/>
<rect x="2" y="47" width="18" height="16" rx="3" fill="#4a6fa5"/>
<text x="11" y="58" fill="white" font-size="9" font-weight="bold" text-anchor="middle">1</text>
<line x1="25" y1="55" x2="80" y2="55" stroke="#555" stroke-width="2.5"/>
<line x1="120" y1="55" x2="474" y2="55" stroke="#555" stroke-width="2.5"/>
<line x1="506" y1="55" x2="560" y2="55" stroke="#555" stroke-width="2.5"/>
<rect x="80" y="45" width="40" height="20" rx="3" fill="#eee" stroke="#999" stroke-width="1.5"/>
<text x="100" y="59" fill="#666" font-size="9" font-weight="bold" text-anchor="middle">AFI</text>
<path d="M 485.1,43 Q 473.9,55 485.1,67" fill="none" stroke="#333" stroke-width="2.5" stroke-linecap="round"/>
<path d="M 494.9,43 Q 506.1,55 494.9,67" fill="none" stroke="#333" stroke-width="2.5" stroke-linecap="round"/>
<text x="490" y="59" fill="#333" font-size="9" font-weight="bold" text-anchor="middle">L</text>
<rect x="60.0" y="5" width="80" height="30" fill="#FFFF00" stroke="#ccc" stroke-width="0.5"/>
<text x="100" y="17" fill="#000" font-size="8" font-weight="bold" text-anchor="middle">AFI</text>
<text x="100" y="29" fill="#000" font-size="8" text-anchor="middle">Always False</text>
<rect x="435.0" y="5" width="110" height="30" fill="#FFFF00" stroke="#ccc" stroke-width="0.5"/>
<text x="490" y="17" fill="#000" font-size="8" font-weight="bold" text-anchor="middle">AXIS A Advance</text>
<text x="490" y="29" fill="#000" font-size="8" text-anchor="middle">A_Advance.Trig</text>
</svg>
