<?xml version="1.0" encoding="UTF-8"?>
<svg xmlns="http://www.w3.org/2000/svg" viewBox="0 0 590 150" width="590" height="150">
<title>Rung 3 - Position Detection</title>
<style>text{font-family:'Segoe UI',Arial,sans-serif}</style>
<line x1="25" y1="10" x2="25" y2="140" stroke="#333" stroke-width="3"/>
<line x1="560" y1="10" x2="560" y2="140" stroke="#333" stroke-width="3"/>
<rect x="2" y="47" width="18" height="16" rx="3" fill="#4a6fa5"/>
<text x="11" y="58" fill="white" font-size="9" font-weight="bold" text-anchor="middle">3</text>
<line x1="25" y1="55" x2="110" y2="55" stroke="#555" stroke-width="2.5"/>
<line x1="130" y1="55" x2="250" y2="55" stroke="#555" stroke-width="2.5"/>
<line x1="270" y1="55" x2="474" y2="55" stroke="#555" stroke-width="2.5"/>
<line x1="506" y1="55" x2="560" y2="55" stroke="#555" stroke-width="2.5"/>
<line x1="110" y1="44" x2="110" y2="66" stroke="#333" stroke-width="2.5" stroke-linecap="round"/>
<line x1="130" y1="44" x2="130" y2="66" stroke="#333" stroke-width="2.5" stroke-linecap="round"/>
<line x1="250" y1="44" x2="250" y2="66" stroke="#333" stroke-width="2.5" stroke-linecap="round"/>
<line x1="270" y1="44" x2="270" y2="66" stroke="#333" stroke-width="2.5" stroke-linecap="round"/>
<line x1="253" y1="62" x2="267" y2="48" stroke="#333" stroke-width="1.8" stroke-linecap="round"/>
<path d="M 485.1,43 Q 473.9,55 485.1,67" fill="none" stroke="#333" stroke-width="2.5" stroke-linecap="round"/>
<path d="M 494.9,43 Q 506.1,55 494.9,67" fill="none" stroke="#333" stroke-width="2.5" stroke-linecap="round"/>
<rect x="70.0" y="5" width="100" height="30" fill="#FFFF00" stroke="#ccc" stroke-width="0.5"/>
<text x="120" y="17" fill="#000" font-size="8" font-weight="bold" text-anchor="middle">AXIS A</text>
<text x="120" y="29" fill="#000" font-size="8" text-anchor="middle">A_ADV_INPUT</text>
<rect x="210.0" y="5" width="100" height="30" fill="#FFFF00" stroke="#ccc" stroke-width="0.5"/>
<text x="260" y="17" fill="#000" font-size="8" font-weight="bold" text-anchor="middle">AXIS A</text>
<text x="260" y="29" fill="#000" font-size="8" text-anchor="middle">A_RET_INPUT</text>
<rect x="435.0" y="5" width="110" height="30" fill="#FFFF00" stroke="#ccc" stroke-width="0.5"/>
<text x="490" y="17" fill="#000" font-size="8" font-weight="bold" text-anchor="middle">AXIS A Advance</text>
<text x="490" y="29" fill="#000" font-size="8" text-anchor="middle">A_Advance.InPos</text>
<line x1="80" y1="55" x2="80" y2="120" stroke="#555" stroke-width="2.5"/>
<line x1="300" y1="55" x2="300" y2="120" stroke="#555" stroke-width="2.5"/>
<line x1="80" y1="120" x2="110" y2="120" stroke="#555" stroke-width="2.5"/>
<line x1="130" y1="120" x2="250" y2="120" stroke="#555" stroke-width="2.5"/>
<line x1="270" y1="120" x2="300" y2="120" stroke="#555" stroke-width="2.5"/>
<line x1="110" y1="109" x2="110" y2="131" stroke="#333" stroke-width="2.5" stroke-linecap="round"/>
<line x1="130" y1="109" x2="130" y2="131" stroke="#333" stroke-width="2.5" stroke-linecap="round"/>
<line x1="113" y1="127" x2="127" y2="113" stroke="#333" stroke-width="1.8" stroke-linecap="round"/>
<line x1="250" y1="109" x2="250" y2="131" stroke="#333" stroke-width="2.5" stroke-linecap="round"/>
<line x1="270" y1="109" x2="270" y2="131" stroke="#333" stroke-width="2.5" stroke-linecap="round"/>
</svg>
