<?xml version="1.0" encoding="UTF-8"?>
<svg xmlns="http://www.w3.org/2000/svg" viewBox="0 0 640 290" width="640" height="290">
<title>Rung 4 - Fault Detection Timer</title>
<style>text{font-family:'Segoe UI',Arial,sans-serif}</style>
<line x1="25" y1="10" x2="25" y2="280" stroke="#333" stroke-width="3"/>
<line x1="610" y1="10" x2="610" y2="280" stroke="#333" stroke-width="3"/>
<rect x="2" y="47" width="18" height="16" rx="3" fill="#4a6fa5"/>
<text x="11" y="58" fill="white" font-size="9" font-weight="bold" text-anchor="middle">4</text>
<rect x="202" y="37" width="36" height="36" rx="4" fill="#c8f5c8" opacity="0.5"/>
<line x1="25" y1="55" x2="90" y2="55" stroke="#555" stroke-width="2.5"/>
<line x1="110" y1="55" x2="210" y2="55" stroke="#555" stroke-width="2.5"/>
<line x1="230" y1="55" x2="300" y2="55" stroke="#00cc44" stroke-width="2.5"/>
<line x1="300" y1="55" x2="410" y2="55" stroke="#555" stroke-width="2.5"/>
<line x1="430" y1="55" x2="524" y2="55" stroke="#555" stroke-width="2.5"/>
<line x1="556" y1="55" x2="610" y2="55" stroke="#555" stroke-width="2.5"/>
<line x1="90" y1="44" x2="90" y2="66" stroke="#333" stroke-width="2.5" stroke-linecap="round"/>
<line x1="110" y1="44" x2="110" y2="66" stroke="#333" stroke-width="2.5" stroke-linecap="round"/>
<line x1="210" y1="44" x2="210" y2="66" stroke="#00cc44" stroke-width="2.5" stroke-linecap="round"/>
<line x1="230" y1="44" x2="230" y2="66" stroke="#00cc44" stroke-width="2.5" stroke-linecap="round"/>
<line x1="410" y1="44" x2="410" y2="66" stroke="#333" stroke-width="2.5" stroke-linecap="round"/>
<line x1="430" y1="44" x2="430" y2="66" stroke="#333" stroke-width="2.5" stroke-linecap="round"/>
<path d="M 535.1,43 Q 523.9,55 535.1,67" fill="none" stroke="#333" stroke-width="2.5" stroke-linecap="round"/>
<path d="M 544.9,43 Q 556.1,55 544.9,67" fill="none" stroke="#333" stroke-width="2.5" stroke-linecap="round"/>
<rect x="45.0" y="5" width="110" height="30" fill="#FFFF00" stroke="#ccc" stroke-width="0.5"/>
<text x="100" y="17" fill="#000" font-size="8" font-weight="bold" text-anchor="middle">AXIS A Advance</text>
<text x="100" y="29" fill="#000" font-size="8" text-anchor="middle">A_Advance.Cmd</text>
<rect x="165.0" y="5" width="110" height="30" fill="#FFFF00" stroke="#ccc" stroke-width="0.5"/>
<text x="220" y="17" fill="#000" font-size="8" font-weight="bold" text-anchor="middle">AXIS A Advance</text>
<text x="220" y="29" fill="#000" font-size="8" text-anchor="middle">A_Advance.InPos</text>
<rect x="355.0" y="5" width="130" height="30" fill="#FFFF00" stroke="#ccc" stroke-width="0.5"/>
<text x="420" y="17" fill="#000" font-size="8" font-weight="bold" text-anchor="middle">AXIS A Advance</text>
<text x="420" y="29" fill="#000" font-size="8" text-anchor="middle">A_Advance.FaultTMR.DN</text>
<rect x="485.0" y="5" width="110" height="30" fill="#FFFF00" stroke="#ccc" stroke-width="0.5"/>
<text x="540" y="17" fill="#000" font-size="8" font-weight="bold" text-anchor="middle">AXIS A Advance</text>
<text x="540" y="29" fill="#000" font-size="8" text-anchor="middle">A_Advance.Fault</text>
<line x1="60" y1="55" x2="60" y2="115" stroke="#555" stroke-width="2.5"/>
<line x1="300" y1="55" x2="300" y2="115" stroke="#555" stroke-width="2.5"/>
<line x1="60" y1="115" x2="210" y2="115" stroke="#555" stroke-width="2.5"/>
<line x1="230" y1="115" x2="300" y2="115" stroke="#555" stroke-width="2.5"/>
<line x1="210" y1="104" x2="210" y2="126" stroke="#333" stroke-width="2.5" stroke-linecap="round"/>
<line x1="230" y1="104" x2="230" y2="126" stroke="#333" stroke-width="2.5" stroke-linecap="round"/>
<rect x="165.0" y="80" width="110" height="30" fill="#FFFF00" stroke="#ccc" stroke-width="0.5"/>
<text x="220" y="92" fill="#000" font-size="8" font-weight="bold" text-anchor="middle">AXIS A Advance</text>
<text x="220" y="104" fill="#000" font-size="8" text-anchor="middle">A_Advance.Fault</text>
<line x1="300" y1="55" x2="300" y2="155" stroke="#555" stroke-width="2.5"/>
<line x1="300" y1="155" x2="370" y2="155" stroke="#555" stroke-width="2.5"/>
<rect x="370" y="135" width="200" height="90" rx="0" fill="#f5f5f5" stroke="#333" stroke-width="2"/>
<line x1="370" y1="157" x2="570" y2="157" stroke="#333" stroke-width="1.5"/>
<text x="378" y="151" fill="#333" font-size="12" font-weight="700">TON</text>
<text x="420" y="151" fill="#333" font-size="10" font-weight="400">Timer On Delay</text>
<text x="378" y="173" fill="#333" font-size="10" font-weight="500">Timer</text>
<text x="562" y="173" fill="#333" font-size="10" font-weight="bold" text-anchor="end">A_Advance.FaultTMR</text>
<line x1="370" y1="179" x2="570" y2="179" stroke="#ccc" stroke-width="0.5"/>
<text x="378" y="193" fill="#333" font-size="10" font-weight="500">Preset</text>
<text x="540" y="193" fill="#333" font-size="10" font-weight="500" text-anchor="end">5000</text>
<polygon points="546,193 552,189 552,197" fill="#333"/>
<line x1="370" y1="199" x2="570" y2="199" stroke="#ccc" stroke-width="0.5"/>
<text x="378" y="213" fill="#333" font-size="10" font-weight="500">Accum</text>
<text x="540" y="213" fill="#333" font-size="10" font-weight="500" text-anchor="end">0</text>
<polygon points="546,213 552,209 552,217" fill="#333"/>
<line x1="570" y1="155" x2="600" y2="155" stroke="#555" stroke-width="2.5"/>
<text x="590" y="149" fill="#333" font-size="9" font-weight="500" text-anchor="middle">(EN)</text>
<line x1="570" y1="213" x2="600" y2="213" stroke="#555" stroke-width="2.5"/>
<text x="590" y="225" fill="#333" font-size="9" font-weight="500" text-anchor="middle">(DN)</text>
<rect x="405.0" y="100" width="130" height="30" fill="#FFFF00" stroke="#ccc" stroke-width="0.5"/>
<text x="470.0" y="112" fill="#000" font-size="8" font-weight="bold" text-anchor="middle">AXIS A Advance</text>
<text x="470.0" y="124" fill="#000" font-size="8" text-anchor="middle">A_Advance.FaultTMR</text>
<text x="470.0" y="239" fill="#888" font-size="10" text-anchor="middle">T4:0</text>
</svg>
