<?xml version="1.0" encoding="UTF-8"?>
<svg xmlns="http://www.w3.org/2000/svg" viewBox="0 0 640 215" width="640" height="215">
<title>Rung 2 - Auto/Manual Command</title>
<style>text{font-family:'Segoe UI',Arial,sans-serif}</style>
<line x1="25" y1="10" x2="25" y2="205" stroke="#333" stroke-width="3"/>
<line x1="610" y1="10" x2="610" y2="205" stroke="#333" stroke-width="3"/>
<rect x="2" y="47" width="18" height="16" rx="3" fill="#4a6fa5"/>
<text x="11" y="58" fill="white" font-size="9" font-weight="bold" text-anchor="middle">2</text>
<rect x="300" y="37" width="170" height="36" rx="4" fill="#c8f5c8" opacity="0.5"/>
<line x1="25" y1="55" x2="90" y2="55" stroke="#555" stroke-width="2.5"/>
<line x1="110" y1="55" x2="200" y2="55" stroke="#555" stroke-width="2.5"/>
<line x1="220" y1="55" x2="310" y2="55" stroke="#00cc44" stroke-width="2.5"/>
<line x1="330" y1="55" x2="420" y2="55" stroke="#00cc44" stroke-width="2.5"/>
<line x1="440" y1="55" x2="524" y2="55" stroke="#00cc44" stroke-width="2.5"/>
<line x1="556" y1="55" x2="610" y2="55" stroke="#555" stroke-width="2.5"/>
<line x1="90" y1="44" x2="90" y2="66" stroke="#333" stroke-width="2.5" stroke-linecap="round"/>
<line x1="110" y1="44" x2="110" y2="66" stroke="#333" stroke-width="2.5" stroke-linecap="round"/>
<line x1="200" y1="44" x2="200" y2="66" stroke="#333" stroke-width="2.5" stroke-linecap="round"/>
<line x1="220" y1="44" x2="220" y2="66" stroke="#333" stroke-width="2.5" stroke-linecap="round"/>
<line x1="310" y1="44" x2="310" y2="66" stroke="#00cc44" stroke-width="2.5" stroke-linecap="round"/>
<line x1="330" y1="44" x2="330" y2="66" stroke="#00cc44" stroke-width="2.5" stroke-linecap="round"/>
<line x1="420" y1="44" x2="420" y2="66" stroke="#00cc44" stroke-width="2.5" stroke-linecap="round"/>
<line x1="440" y1="44" x2="440" y2="66" stroke="#00cc44" stroke-width="2.5" stroke-linecap="round"/>
<path d="M 535.1,43 Q 523.9,55 535.1,67" fill="none" stroke="#333" stroke-width="2.5" stroke-linecap="round"/>
<path d="M 544.9,43 Q 556.1,55 544.9,67" fill="none" stroke="#333" stroke-width="2.5" stroke-linecap="round"/>
<rect x="45.0" y="5" width="110" height="30" fill="#FFFF00" stroke="#ccc" stroke-width="0.5"/>
<text x="100" y="17" fill="#000" font-size="8" font-weight="bold" text-anchor="middle">AUTO MODE</text>
<text x="100" y="29" fill="#000" font-size="8" text-anchor="middle">AutoMode</text>
<rect x="155.0" y="5" width="110" height="30" fill="#FFFF00" stroke="#ccc" stroke-width="0.5"/>
<text x="210" y="17" fill="#000" font-size="8" font-weight="bold" text-anchor="middle">AXIS A Advance</text>
<text x="210" y="29" fill="#000" font-size="8" text-anchor="middle">A_Advance.Trig</text>
<rect x="265.0" y="5" width="110" height="30" fill="#FFFF00" stroke="#ccc" stroke-width="0.5"/>
<text x="320" y="17" fill="#000" font-size="8" font-weight="bold" text-anchor="middle">AXIS A Advance</text>
<text x="320" y="29" fill="#000" font-size="8" text-anchor="middle">A_Advance.Safe</text>
<rect x="375.0" y="5" width="110" height="30" fill="#FFFF00" stroke="#ccc" stroke-width="0.5"/>
<text x="430" y="17" fill="#000" font-size="8" font-weight="bold" text-anchor="middle">AXIS A Advance</text>
<text x="430" y="29" fill="#000" font-size="8" text-anchor="middle">A_Advance.InPos</text>
<rect x="485.0" y="5" width="110" height="30" fill="#FFFF00" stroke="#ccc" stroke-width="0.5"/>
<text x="540" y="17" fill="#000" font-size="8" font-weight="bold" text-anchor="middle">AXIS A Advance</text>
<text x="540" y="29" fill="#000" font-size="8" text-anchor="middle">A_Advance.Cmd</text>
<line x1="60" y1="55" x2="60" y2="120" stroke="#555" stroke-width="2.5"/>
<line x1="250" y1="55" x2="250" y2="120" stroke="#555" stroke-width="2.5"/>
<line x1="60" y1="120" x2="90" y2="120" stroke="#555" stroke-width="2.5"/>
<line x1="110" y1="120" x2="200" y2="120" stroke="#555" stroke-width="2.5"/>
<line x1="220" y1="120" x2="250" y2="120" stroke="#555" stroke-width="2.5"/>
<line x1="90" y1="109" x2="90" y2="131" stroke="#333" stroke-width="2.5" stroke-linecap="round"/>
<line x1="110" y1="109" x2="110" y2="131" stroke="#333" stroke-width="2.5" stroke-linecap="round"/>
<line x1="200" y1="109" x2="200" y2="131" stroke="#333" stroke-width="2.5" stroke-linecap="round"/>
<line x1="220" y1="109" x2="220" y2="131" stroke="#333" stroke-width="2.5" stroke-linecap="round"/>
<rect x="45.0" y="85" width="110" height="30" fill="#FFFF00" stroke="#ccc" stroke-width="0.5"/>
<text x="100" y="97" fill="#000" font-size="8" font-weight="bold" text-anchor="middle">MANUAL MODE</text>
<text x="100" y="109" fill="#000" font-size="8" text-anchor="middle">ManualMode</text>
<rect x="155.0" y="85" width="110" height="30" fill="#FFFF00" stroke="#ccc" stroke-width="0.5"/>
<text x="210" y="97" fill="#000" font-size="8" font-weight="bold" text-anchor="middle">AXIS A Advance</text>
<text x="210" y="109" fill="#000" font-size="8" text-anchor="middle">A_Advance.PB</text>
<line x1="390" y1="55" x2="390" y2="185" stroke="#555" stroke-width="2.5"/>
<line x1="524" y1="55" x2="524" y2="185" stroke="#555" stroke-width="2.5"/>
<line x1="390" y1="185" x2="420" y2="185" stroke="#555" stroke-width="2.5"/>
<line x1="440" y1="185" x2="524" y2="185" stroke="#555" stroke-width="2.5"/>
<line x1="420" y1="174" x2="420" y2="196" stroke="#333" stroke-width="2.5" stroke-linecap="round"/>
<line x1="440" y1="174" x2="440" y2="196" stroke="#333" stroke-width="2.5" stroke-linecap="round"/>
<rect x="375.0" y="150" width="110" height="30" fill="#FFFF00" stroke="#ccc" stroke-width="0.5"/>
<text x="430" y="162" fill="#000" font-size="8" font-weight="bold" text-anchor="middle">AXIS A Advance</text>
<text x="430" y="174" fill="#000" font-size="8" text-anchor="middle">A_Advance.Cmd</text>
</svg>
