<?xml version="1.0" encoding="UTF-8"?>
<svg xmlns="http://www.w3.org/2000/svg" viewBox="0 0 590 90" width="590" height="90">
<title>Rung 0 - Safety Interlock</title>
<style>text{font-family:'Segoe UI',Arial,sans-serif}</style>
<line x1="25" y1="10" x2="25" y2="80" stroke="#333" stroke-width="3"/>
<line x1="560" y1="10" x2="560" y2="80" stroke="#333" stroke-width="3"/>
<rect x="2" y="47" width="18" height="16" rx="3" fill="#4a6fa5"/>
<text x="11" y="58" fill="white" font-size="9" font-weight="bold" text-anchor="middle">0</text>
<rect x="55" y="38" width="480" height="34" rx="4" fill="#c8f5c8" opacity="0.5"/>
<line x1="25" y1="55" x2="90" y2="55" stroke="#00cc44" stroke-width="2.5"/>
<line x1="110" y1="55" x2="210" y2="55" stroke="#00cc44" stroke-width="2.5"/>
<line x1="230" y1="55" x2="330" y2="55" stroke="#00cc44" stroke-width="2.5"/>
<line x1="350" y1="55" x2="474" y2="55" stroke="#00cc44" stroke-width="2.5"/>
<line x1="506" y1="55" x2="560" y2="55" stroke="#00cc44" stroke-width="2.5"/>
<line x1="90" y1="44" x2="90" y2="66" stroke="#00cc44" stroke-width="2.5" stroke-linecap="round"/>
<line x1="110" y1="44" x2="110" y2="66" stroke="#00cc44" stroke-width="2.5" stroke-linecap="round"/>
<line x1="210" y1="44" x2="210" y2="66" stroke="#00cc44" stroke-width="2.5" stroke-linecap="round"/>
<line x1="230" y1="44" x2="230" y2="66" stroke="#00cc44" stroke-width="2.5" stroke-linecap="round"/>
<line x1="213" y1="62" x2="227" y2="48" stroke="#00cc44" stroke-width="1.8" stroke-linecap="round"/>
<line x1="330" y1="44" x2="330" y2="66" stroke="#00cc44" stroke-width="2.5" stroke-linecap="round"/>
<line x1="350" y1="44" x2="350" y2="66" stroke="#00cc44" stroke-width="2.5" stroke-linecap="round"/>
<path d="M 485.1,43 Q 473.9,55 485.1,67" fill="none" stroke="#006600" stroke-width="2.5" stroke-linecap="round"/>
<path d="M 494.9,43 Q 506.1,55 494.9,67" fill="none" stroke="#006600" stroke-width="2.5" stroke-linecap="round"/>
<rect x="45.0" y="5" width="110" height="30" fill="#FFFF00" stroke="#ccc" stroke-width="0.5"/>
<text x="100" y="17" fill="#000" font-size="8" font-weight="bold" text-anchor="middle">NO CRITICAL</text>
<text x="100" y="29" fill="#000" font-size="8" text-anchor="middle">FC.0</text>
<rect x="165.0" y="5" width="110" height="30" fill="#FFFF00" stroke="#ccc" stroke-width="0.5"/>
<text x="220" y="17" fill="#000" font-size="8" font-weight="bold" text-anchor="middle">AXIS A Advance</text>
<text x="220" y="29" fill="#000" font-size="8" text-anchor="middle">A_Advance.Fault</text>
<rect x="285.0" y="5" width="110" height="30" fill="#FFFF00" stroke="#ccc" stroke-width="0.5"/>
<text x="340" y="17" fill="#000" font-size="8" font-weight="bold" text-anchor="middle">AXIS B Retract</text>
<text x="340" y="29" fill="#000" font-size="8" text-anchor="middle">B_Retract.InPos</text>
<rect x="435.0" y="5" width="110" height="30" fill="#FFFF00" stroke="#ccc" stroke-width="0.5"/>
<text x="490" y="17" fill="#000" font-size="8" font-weight="bold" text-anchor="middle">AXIS A Advance</text>
<text x="490" y="29" fill="#000" font-size="8" text-anchor="middle">A_Advance.Safe</text>
</svg>
